{
.appVersion = "3260";
.formatVersion = 3;
DisplayStrings = (
"AÁ",
"AÁ"
);
date = "2024-10-14 15:19:46 +0000";
familyName = "Snaha v01";
fontMaster = (
{
id = m01;
metricValues = (
{
over = 16;
pos = 800;
},
{
over = 16;
pos = 700;
},
{
over = 16;
pos = 700;
},
{
over = 16;
pos = 400;
},
{
over = 16;
pos = 400;
},
{
over = -16;
},
{
over = -16;
pos = -200;
}
);
name = Regular;
}
);
glyphs = (
{
glyphname = A;
lastChange = "2024-10-14 15:18:53 +0000";
layers = (
{
anchors = (
{
name = bottom;
pos = (260,0);
},
{
name = ogonek;
pos = (468,10);
},
{
name = top;
pos = (254,700);
}
);
layerId = m01;
shapes = (
{
closed = 1;
nodes = (
(445,700,l),
(113,700,l),
(113,643,l),
(284,643,l),
(284,0,l),
(445,0,l)
);
},
{
closed = 1;
nodes = (
(295,220,l),
(120,220,l),
(120,163,l),
(295,163,l)
);
},
{
closed = 1;
nodes = (
(131,700,l),
(74,700,l),
(74,0,l),
(131,0,l)
);
}
);
width = 520;
}
);
unicode = 65;
},
{
glyphname = B;
lastChange = "2024-10-10 10:13:42 +0000";
layers = (
{
layerId = m01;
shapes = (
{
closed = 1;
nodes = (
(466,0,l),
(466,700,l),
(134,700,l),
(134,643,l),
(305,643,l),
(305,0,l)
);
},
{
closed = 1;
nodes = (
(316,0,l),
(316,57,l),
(141,57,l),
(141,0,l)
);
},
{
closed = 1;
nodes = (
(152,0,l),
(152,700,l),
(95,700,l),
(95,0,l)
);
},
{
closed = 1;
nodes = (
(316,283,l),
(316,340,l),
(141,340,l),
(141,283,l)
);
},
{
closed = 1;
nodes = (
(409,340,l),
(466,340,l),
(466,283,l),
(409,283,l)
);
}
);
width = 560;
}
);
unicode = 66;
},
{
glyphname = C;
lastChange = "2024-09-14 07:31:54 +0000";
layers = (
{
layerId = m01;
shapes = (
{
closed = 1;
nodes = (
(56,700,l),
(56,1,l),
(443,1,l),
(443,59,l),
(231,59,l),
(231,642,l),
(443,642,l),
(443,700,l)
);
}
);
width = 480;
}
);
unicode = 67;
},
{
glyphname = D;
lastChange = "2024-09-14 09:01:39 +0000";
layers = (
{
layerId = m01;
shapes = (
{
closed = 1;
nodes = (
(433,700,l),
(67,700,l),
(67,0,l),
(433,0,l)
);
},
{
closed = 1;
nodes = (
(250,61,l),
(250,639,l),
(372,639,l),
(372,61,l)
);
}
);
width = 500;
}
);
unicode = 68;
},
{
glyphname = E;
lastChange = "2024-10-14 15:18:40 +0000";
layers = (
{
anchors = (
{
name = bottom;
pos = (235,0);
},
{
name = ogonek;
pos = (423,10);
},
{
name = top;
pos = (230,700);
},
{
name = topleft;
pos = (20,700);
}
);
layerId = m01;
shapes = (
{
closed = 1;
nodes = (
(222,0,l),
(222,700,l),
(61,700,l),
(61,0,l)
);
},
{
closed = 1;
nodes = (
(416,0,l),
(416,57,l),
(211,57,l),
(211,0,l)
);
},
{
closed = 1;
nodes = (
(386,283,l),
(386,340,l),
(211,340,l),
(211,283,l)
);
},
{
closed = 1;
nodes = (
(406,643,l),
(406,700,l),
(211,700,l),
(211,643,l)
);
}
);
width = 470;
}
);
unicode = 69;
},
{
glyphname = F;
lastChange = "2024-09-15 11:02:20 +0000";
layers = (
{
layerId = m01;
shapes = (
{
closed = 1;
nodes = (
(259,0,l),
(259,700,l),
(98,700,l),
(98,0,l)
);
},
{
closed = 1;
nodes = (
(259,0,l),
(259,700,l),
(202,700,l),
(202,0,l)
);
},
{
closed = 1;
nodes = (
(423,283,l),
(423,340,l),
(248,340,l),
(248,283,l)
);
},
{
closed = 1;
nodes = (
(443,643,l),
(443,700,l),
(248,700,l),
(248,643,l)
);
}
);
width = 500;
}
);
unicode = 70;
},
{
glyphname = G;
lastChange = "2024-09-16 10:07:14 +0000";
layers = (
{
layerId = m01;
shapes = (
{
closed = 1;
nodes = (
(246,0,l),
(246,643,l),
(456,643,l),
(456,700,l),
(85,700,l),
(85,0,l)
);
},
{
closed = 1;
nodes = (
(410,0,l),
(410,57,l),
(235,57,l),
(235,0,l)
);
},
{
closed = 1;
nodes = (
(456,0,l),
(456,340,l),
(399,340,l),
(399,0,l)
);
},
{
closed = 1;
nodes = (
(410,283,l),
(410,340,l),
(328,340,l),
(328,283,l)
);
}
);
width = 500;
}
);
unicode = 71;
},
{
glyphname = H;
lastChange = "2024-09-14 07:28:10 +0000";
layers = (
{
layerId = m01;
shapes = (
{
closed = 1;
nodes = (
(305,700,l),
(466,700,l),
(466,0,l),
(305,0,l)
);
},
{
closed = 1;
nodes = (
(152,700,l),
(152,0,l),
(95,0,l),
(95,700,l)
);
},
{
closed = 1;
nodes = (
(316,340,l),
(316,283,l),
(141,283,l),
(141,340,l)
);
}
);
width = 560;
}
);
unicode = 72;
},
{
glyphname = I;
lastChange = "2024-10-11 11:47:48 +0000";
layers = (
{
layerId = m01;
shapes = (
{
closed = 1;
nodes = (
(55,699,l),
(55,0,l),
(205,0,l),
(205,699,l)
);
}
);
width = 260;
}
);
unicode = 73;
},
{
glyphname = J;
lastChange = "2024-09-13 15:36:17 +0000";
layers = (
{
layerId = m01;
shapes = (
{
closed = 1;
nodes = (
(435,0,l),
(60,0,l),
(60,250,l),
(116,250,l),
(116,50,l),
(285,50,l),
(285,700,l),
(435,700,l),
(435,650,l)
);
}
);
width = 500;
}
);
unicode = 74;
},
{
glyphname = K;
lastChange = "2024-09-16 10:14:58 +0000";
layers = (
{
layerId = m01;
shapes = (
{
closed = 1;
nodes = (
(172,0,l),
(172,700,l),
(115,700,l),
(115,0,l)
);
},
{
closed = 1;
nodes = (
(325,343,l),
(325,400,l),
(167,400,l),
(167,343,l)
);
},
{
closed = 1;
nodes = (
(325,400,l),
(486,400,l),
(486,700,l),
(325,700,l)
);
},
{
closed = 1;
nodes = (
(325,0,l),
(486,0,l),
(486,343,l),
(325,343,l)
);
}
);
width = 600;
}
);
unicode = 75;
},
{
glyphname = L;
lastChange = "2024-10-11 11:49:16 +0000";
layers = (
{
layerId = m01;
shapes = (
{
closed = 1;
nodes = (
(77,700,l),
(77,0,l),
(434,0,l),
(434,58,l),
(252,58,l),
(252,700,l)
);
}
);
width = 480;
}
);
unicode = 76;
},
{
glyphname = M;
lastChange = "2024-10-14 15:05:41 +0000";
layers = (
{
layerId = m01;
shapes = (
{
closed = 1;
nodes = (
(745,0,l),
(745,700,l),
(584,700,l),
(584,0,l)
);
},
{
closed = 1;
nodes = (
(217,0,l),
(217,700,l),
(160,700,l),
(160,0,l)
);
},
{
closed = 1;
nodes = (
(432,0,l),
(221,700,l),
(164,700,l),
(375,0,l)
);
},
{
closed = 1;
nodes = (
(642,700,l),
(585,700,l),
(374,0,l),
(431,0,l)
);
}
);
width = 800;
}
);
unicode = 77;
},
{
glyphname = N;
lastChange = "2024-10-11 11:49:00 +0000";
layers = (
{
layerId = m01;
shapes = (
{
closed = 1;
nodes = (
(445,0,l),
(445,700,l),
(284,700,l),
(284,0,l)
);
},
{
closed = 1;
nodes = (
(131,0,l),
(131,700,l),
(74,700,l),
(74,0,l)
);
},
{
closed = 1;
nodes = (
(342,0,l),
(131,700,l),
(74,700,l),
(285,0,l)
);
}
);
width = 520;
}
);
unicode = 78;
},
{
glyphname = O;
lastChange = "2024-10-14 15:18:16 +0000";
layers = (
{
anchors = (
{
name = bottom;
pos = (250,0);
},
{
name = center;
pos = (250,350);
},
{
name = ogonek;
pos = (450,10);
},
{
name = top;
pos = (250,700);
},
{
name = topleft;
pos = (20,700);
},
{
name = topright;
pos = (480,700);
}
);
layerId = m01;
shapes = (
{
closed = 1;
nodes = (
(433,0,l),
(433,700,l),
(67,700,l),
(67,0,l)
);
},
{
closed = 1;
nodes = (
(128,639,l),
(250,639,l),
(250,61,l),
(128,61,l)
);
}
);
width = 500;
}
);
unicode = 79;
},
{
glyphname = P;
lastChange = "2024-09-16 10:08:20 +0000";
layers = (
{
layerId = m01;
shapes = (
{
closed = 1;
nodes = (
(431,283,l),
(431,700,l),
(99,700,l),
(99,643,l),
(270,643,l),
(270,283,l)
);
},
{
closed = 1;
nodes = (
(117,0,l),
(117,700,l),
(60,700,l),
(60,0,l)
);
},
{
closed = 1;
nodes = (
(281,283,l),
(281,340,l),
(106,340,l),
(106,283,l)
);
}
);
width = 500;
}
);
unicode = 80;
},
{
glyphname = Q;
lastChange = "2024-09-16 10:17:43 +0000";
layers = (
{
layerId = m01;
shapes = (
{
closed = 1;
nodes = (
(433,0,l),
(433,700,l),
(67,700,l),
(67,0,l)
);
},
{
closed = 1;
nodes = (
(128,639,l),
(250,639,l),
(250,61,l),
(128,61,l)
);
},
{
closed = 1;
nodes = (
(218,-143,l),
(218,114,l),
(161,114,l),
(161,-143,l)
);
}
);
width = 500;
}
);
unicode = 81;
},
{
glyphname = R;
lastChange = "2024-10-10 10:33:10 +0000";
layers = (
{
layerId = m01;
shapes = (
{
closed = 1;
nodes = (
(435,0,l),
(435,700,l),
(103,700,l),
(103,643,l),
(274,643,l),
(274,0,l)
);
},
{
closed = 1;
nodes = (
(121,0,l),
(121,700,l),
(64,700,l),
(64,0,l)
);
},
{
closed = 1;
nodes = (
(285,283,l),
(285,340,l),
(110,340,l),
(110,283,l)
);
},
{
closed = 1;
nodes = (
(378,340,l),
(435,340,l),
(435,283,l),
(378,283,l)
);
}
);
width = 500;
}
);
unicode = 82;
},
{
glyphname = S;
lastChange = "2024-10-10 13:58:30 +0000";
layers = (
{
layerId = m01;
shapes = (
{
closed = 1;
nodes = (
(355,0,l),
(40,0,l),
(40,250,l),
(96,250,l),
(96,50,l),
(205,50,l),
(205,700,l),
(520,700,l),
(520,450,l),
(470,450,l),
(470,650,l),
(355,650,l)
);
}
);
width = 570;
}
);
unicode = 83;
},
{
glyphname = T;
lastChange = "2024-09-13 17:55:33 +0000";
layers = (
{
layerId = m01;
shapes = (
{
closed = 1;
nodes = (
(165,650,l),
(15,650,l),
(15,700,l),
(465,700,l),
(465,650,l),
(315,650,l),
(315,0,l),
(165,0,l)
);
}
);
width = 480;
}
);
unicode = 84;
},
{
glyphname = U;
lastChange = "2024-10-14 15:14:10 +0000";
layers = (
{
anchors = (
{
name = bottom;
pos = (250,0);
},
{
name = ogonek;
pos = (450,10);
},
{
name = top;
pos = (250,700);
},
{
name = topright;
pos = (480,700);
}
);
layerId = m01;
shapes = (
{
closed = 1;
nodes = (
(431,0,l),
(431,700,l),
(270,700,l),
(270,57,l),
(99,57,l),
(99,0,l)
);
},
{
closed = 1;
nodes = (
(117,0,l),
(117,700,l),
(60,700,l),
(60,0,l)
);
}
);
width = 500;
}
);
unicode = 85;
},
{
glyphname = V;
lastChange = "2024-10-10 10:36:39 +0000";
layers = (
{
layerId = m01;
shapes = (
{
closed = 1;
nodes = (
(392,0,l),
(392,57,l),
(374,57,l),
(221,700,l),
(60,700,l),
(213,0,l)
);
},
{
closed = 1;
nodes = (
(431,0,l),
(431,700,l),
(374,700,l),
(374,0,l)
);
}
);
width = 500;
}
);
unicode = 86;
},
{
glyphname = W;
lastChange = "2024-09-16 10:08:39 +0000";
layers = (
{
layerId = m01;
shapes = (
{
closed = 1;
nodes = (
(745,0,l),
(745,700,l),
(584,700,l),
(584,57,l),
(413,57,l),
(413,0,l)
);
},
{
closed = 1;
nodes = (
(117,0,l),
(117,700,l),
(60,700,l),
(60,0,l)
);
},
{
closed = 1;
nodes = (
(431,0,l),
(431,700,l),
(270,700,l),
(270,57,l),
(99,57,l),
(99,0,l)
);
}
);
width = 800;
}
);
unicode = 87;
},
{
glyphname = X;
lastChange = "2024-09-16 10:15:17 +0000";
layers = (
{
layerId = m01;
shapes = (
{
closed = 1;
nodes = (
(380,0,l),
(380,700,l),
(219,700,l),
(219,0,l)
);
},
{
closed = 1;
nodes = (
(121,0,l),
(121,366,l),
(64,366,l),
(64,0,l)
);
},
{
closed = 1;
nodes = (
(536,322,l),
(536,379,l),
(64,379,l),
(64,322,l)
);
},
{
closed = 1;
nodes = (
(536,334,l),
(536,700,l),
(479,700,l),
(479,334,l)
);
}
);
width = 600;
}
);
unicode = 88;
},
{
glyphname = Y;
lastChange = "2024-10-11 11:59:54 +0000";
layers = (
{
layerId = m01;
shapes = (
{
closed = 1;
nodes = (
(432,0,l),
(432,700,l),
(271,700,l),
(271,0,l)
);
},
{
closed = 1;
nodes = (
(332,256,l),
(107,700,l),
(50,700,l),
(275,256,l)
);
}
);
width = 500;
}
);
unicode = 89;
},
{
glyphname = Z;
lastChange = "2024-09-15 11:19:03 +0000";
layers = (
{
layerId = m01;
shapes = (
{
closed = 1;
nodes = (
(110,650,l),
(110,450,l),
(60,450,l),
(60,700,l),
(375,700,l),
(375,50,l),
(484,50,l),
(484,250,l),
(540,250,l),
(540,0,l),
(225,0,l),
(225,650,l)
);
}
);
width = 600;
}
);
unicode = 90;
},
{
glyphname = I.001;
lastChange = "2024-10-10 10:34:42 +0000";
layers = (
{
layerId = m01;
shapes = (
{
closed = 1;
nodes = (
(105,700,l),
(105,1,l),
(255,1,l),
(255,700,l)
);
}
);
width = 360;
}
);
},
{
glyphname = M.001;
lastChange = "2024-09-16 10:07:18 +0000";
layers = (
{
layerId = m01;
shapes = (
{
closed = 1;
nodes = (
(745,0,l),
(745,700,l),
(413,700,l),
(413,643,l),
(584,643,l),
(584,0,l)
);
},
{
closed = 1;
nodes = (
(117,0,l),
(117,700,l),
(60,700,l),
(60,0,l)
);
},
{
closed = 1;
nodes = (
(431,0,l),
(431,700,l),
(99,700,l),
(99,643,l),
(270,643,l),
(270,0,l)
);
}
);
width = 800;
}
);
},
{
glyphname = N.001;
lastChange = "2024-09-16 10:07:11 +0000";
layers = (
{
layerId = m01;
shapes = (
{
closed = 1;
nodes = (
(431,0,l),
(431,700,l),
(99,700,l),
(99,643,l),
(270,643,l),
(270,0,l)
);
},
{
closed = 1;
nodes = (
(117,0,l),
(117,700,l),
(60,700,l),
(60,0,l)
);
}
);
width = 500;
}
);
},
{
glyphname = S.001;
lastChange = "2024-09-13 14:25:07 +0000";
layers = (
{
layerId = m01;
shapes = (
{
closed = 1;
nodes = (
(374.765,0,l),
(0,0,l),
(0,250.282,l),
(55.569,250.282,l),
(55.569,50.407,l),
(224.859,50.407,l),
(224.859,700,l),
(599.624,700,l),
(599.624,450.157,l),
(549.656,450.157,l),
(549.656,650.031,l),
(374.765,650.031,l)
);
}
);
width = 600;
}
);
},
{
glyphname = V.001;
lastChange = "2024-09-16 10:07:46 +0000";
layers = (
{
layerId = m01;
shapes = (
{
closed = 1;
nodes = (
(392,0,l),
(392,57,l),
(221,57,l),
(221,700,l),
(60,700,l),
(60,0,l)
);
},
{
closed = 1;
nodes = (
(431,0,l),
(431,700,l),
(374,700,l),
(374,0,l)
);
}
);
width = 500;
}
);
},
{
glyphname = Y.001;
lastChange = "2024-09-16 10:08:36 +0000";
layers = (
{
layerId = m01;
shapes = (
{
closed = 1;
nodes = (
(436,0,l),
(436,700,l),
(275,700,l),
(275,0,l)
);
},
{
closed = 1;
nodes = (
(286,283,l),
(286,340,l),
(111,340,l),
(111,283,l)
);
},
{
closed = 1;
nodes = (
(122,283,l),
(122,700,l),
(65,700,l),
(65,283,l)
);
}
);
width = 500;
}
);
},
{
glyphname = a;
lastChange = "2024-09-15 11:26:35 +0000";
layers = (
{
anchors = (
{
name = bottom;
pos = (240,0);
},
{
name = ogonek;
pos = (432,10);
},
{
name = top;
pos = (240,400);
}
);
layerId = m01;
shapes = (
{
closed = 1;
nodes = (
(239,343,l),
(68,343,l),
(68,400,l),
(411,400,l),
(411,0,l),
(68,0,l),
(68,230,l),
(239,230,l)
);
},
{
closed = 1;
nodes = (
(125,57,l),
(239,57,l),
(239,172,l),
(125,172,l)
);
}
);
width = 480;
}
);
unicode = 97;
},
{
glyphname = b;
lastChange = "2024-09-13 14:15:49 +0000";
layers = (
{
layerId = m01;
shapes = (
{
closed = 1;
nodes = (
(78,0,l),
(78,700,l),
(135,700,l),
(135,400,l),
(422,400,l),
(422,0,l)
);
},
{
closed = 1;
nodes = (
(250,58,l),
(250,345,l),
(135,345,l),
(135,58,l)
);
}
);
width = 500;
}
);
unicode = 98;
},
{
glyphname = c;
lastChange = "2024-09-15 17:42:10 +0000";
layers = (
{
anchors = (
{
name = bottom;
pos = (250,0);
},
{
name = top;
pos = (250,363);
}
);
layerId = m01;
shapes = (
{
closed = 1;
nodes = (
(251,57,l),
(251,343,l),
(422,343,l),
(422,400,l),
(79,400,l),
(79,0,l),
(422,0,l),
(422,57,l)
);
}
);
width = 500;
}
);
unicode = 99;
},
{
glyphname = d;
lastChange = "2024-09-13 14:16:37 +0000";
layers = (
{
layerId = m01;
shapes = (
{
closed = 1;
nodes = (
(78,400,l),
(365,400,l),
(365,700,l),
(422,700,l),
(422,0,l),
(78,0,l)
);
},
{
closed = 1;
nodes = (
(365,345,l),
(250,345,l),
(250,58,l),
(365,58,l)
);
}
);
width = 500;
}
);
unicode = 100;
},
{
glyphname = e;
lastChange = "2024-09-13 17:06:44 +0000";
layers = (
{
layerId = m01;
shapes = (
{
closed = 1;
nodes = (
(250,57,l),
(422,57,l),
(422,0,l),
(78,0,l),
(78,400,l),
(422,400,l),
(422,171,l),
(250,171,l)
);
},
{
closed = 1;
nodes = (
(250,229,l),
(364,229,l),
(364,343,l),
(250,343,l)
);
}
);
width = 500;
}
);
unicode = 101;
},
{
glyphname = f;
lastChange = "2024-09-13 14:28:49 +0000";
layers = (
{
layerId = m01;
shapes = (
{
closed = 1;
nodes = (
(192,0,l),
(278,0,l),
(278,700,l),
(192,700,l)
);
},
{
closed = 1;
nodes = (
(249,642,l),
(392,642,l),
(392,700,l),
(249,700,l)
);
},
{
closed = 1;
nodes = (
(222,341,l),
(365,341,l),
(365,399,l),
(222,399,l)
);
}
);
width = 500;
}
);
unicode = 102;
},
{
glyphname = g;
lastChange = "2024-09-13 14:36:52 +0000";
layers = (
{
layerId = m01;
shapes = (
{
closed = 1;
nodes = (
(421,-200,l),
(421,400,l),
(79,400,l),
(79,0,l),
(250,0,l),
(250,-143,l),
(79,-143,l),
(79,-200,l)
);
},
{
closed = 1;
nodes = (
(136,343,l),
(250,343,l),
(250,57,l),
(136,57,l)
);
}
);
width = 500;
}
);
unicode = 103;
},
{
glyphname = h;
lastChange = "2024-09-13 14:08:56 +0000";
layers = (
{
layerId = m01;
shapes = (
{
closed = 1;
nodes = (
(79,0,l),
(79,700,l),
(137,700,l),
(137,399,l),
(422,400,l),
(422,0,l),
(251,0,l),
(251,342,l),
(137,342,l),
(137,0,l)
);
}
);
width = 500;
}
);
unicode = 104;
},
{
glyphname = i;
lastChange = "2024-09-13 17:06:57 +0000";
layers = (
{
layerId = m01;
shapes = (
{
closed = 1;
nodes = (
(92,0,l),
(149,0,l),
(149,400,l),
(92,400,l)
);
},
{
closed = 1;
nodes = (
(158,488,l),
(158,564,l),
(82,564,l),
(82,488,l)
);
}
);
width = 240;
}
);
unicode = 105;
},
{
glyphname = j;
lastChange = "2024-09-13 17:08:23 +0000";
layers = (
{
layerId = m01;
shapes = (
{
closed = 1;
nodes = (
(194,-200,l),
(36,-200,l),
(36,-143,l),
(137,-143,l),
(136,400,l),
(194,400,l)
);
},
{
closed = 1;
nodes = (
(202,488,l),
(202,564,l),
(126,564,l),
(126,488,l)
);
}
);
width = 280;
}
);
unicode = 106;
},
{
glyphname = jdotless;
lastChange = "2024-09-13 21:34:05 +0000";
layers = (
{
layerId = m01;
shapes = (
{
closed = 1;
nodes = (
(194,-200,l),
(36,-200,l),
(36,-143,l),
(137,-143,l),
(136,400,l),
(194,400,l)
);
}
);
width = 280;
}
);
unicode = 567;
},
{
glyphname = k;
lastChange = "2024-09-13 14:46:02 +0000";
layers = (
{
layerId = m01;
shapes = (
{
closed = 1;
nodes = (
(79,0,l),
(79,699,l),
(136,699,l),
(136,228,l),
(250,228,l),
(250,399,l),
(421,400,l),
(421,0,l),
(250,0,l),
(250,171,l),
(136,171,l),
(136,0,l)
);
}
);
width = 500;
}
);
unicode = 107;
},
{
glyphname = l;
lastChange = "2024-09-16 09:25:32 +0000";
layers = (
{
layerId = m01;
shapes = (
{
closed = 1;
nodes = (
(92,0,l),
(149,0,l),
(149,700,l),
(92,700,l)
);
}
);
width = 240;
}
);
unicode = 108;
},
{
glyphname = m;
lastChange = "2024-09-13 15:42:13 +0000";
layers = (
{
layerId = m01;
shapes = (
{
closed = 1;
nodes = (
(251,343,l),
(337,343,l),
(337,0,l),
(508,0,l),
(508,400,l),
(52,400,l),
(52,0,l),
(109,0,l),
(109,343,l),
(194,343,l),
(194,1,l),
(251,0,l)
);
}
);
width = 560;
}
);
unicode = 109;
},
{
glyphname = n;
lastChange = "2024-10-11 12:07:47 +0000";
layers = (
{
layerId = m01;
shapes = (
{
closed = 1;
nodes = (
(116,342,l),
(116,0,l),
(59,0,l),
(59,400,l),
(401,400,l),
(401,0,l),
(230,0,l),
(230,342,l)
);
}
);
width = 460;
}
);
unicode = 110;
},
{
glyphname = o;
lastChange = "2024-10-09 12:38:47 +0000";
layers = (
{
anchors = (
{
name = bottom;
pos = (250,0);
},
{
name = center;
pos = (250,200);
},
{
name = ogonek;
pos = (450,10);
},
{
name = top;
pos = (195,400);
},
{
name = topright;
pos = (480,400);
}
);
layerId = m01;
shapes = (
{
closed = 1;
nodes = (
(421,0,l),
(421,400,l),
(78,400,l),
(78,0,l)
);
},
{
closed = 1;
nodes = (
(135,343,l),
(249,343,l),
(249,57,l),
(135,57,l)
);
}
);
width = 500;
}
);
unicode = 111;
},
{
glyphname = p;
lastChange = "2024-09-13 14:14:05 +0000";
layers = (
{
layerId = m01;
shapes = (
{
closed = 1;
nodes = (
(136,-200,l),
(136,-1,l),
(421,-1,l),
(421,400,l),
(79,400,l),
(79,-200,l)
);
},
{
closed = 1;
nodes = (
(136,343,l),
(250,343,l),
(250,56,l),
(136,56,l)
);
}
);
width = 500;
}
);
unicode = 112;
},
{
glyphname = q;
lastChange = "2024-09-13 14:42:27 +0000";
layers = (
{
layerId = m01;
shapes = (
{
closed = 1;
nodes = (
(421,400,l),
(79,400,l),
(79,-1,l),
(364,-1,l),
(364,-200,l),
(421,-200,l)
);
},
{
closed = 1;
nodes = (
(250,56,l),
(250,343,l),
(364,343,l),
(364,56,l)
);
}
);
width = 500;
}
);
unicode = 113;
},
{
glyphname = r;
lastChange = "2024-09-13 21:46:14 +0000";
layers = (
{
layerId = m01;
shapes = (
{
closed = 1;
nodes = (
(397,343,l),
(254,343,l),
(254,0,l),
(83,0,l),
(83,400,l),
(397,400,l)
);
}
);
width = 430;
}
);
unicode = 114;
},
{
glyphname = s;
lastChange = "2024-09-15 17:45:42 +0000";
layers = (
{
anchors = (
{
name = bottom;
pos = (250,0);
},
{
name = top;
pos = (265,400);
}
);
layerId = m01;
shapes = (
{
closed = 1;
nodes = (
(336,0,l),
(22,0,l),
(22,57,l),
(165,57,l),
(165,400,l),
(479,400,l),
(479,342,l),
(336,342,l)
);
}
);
width = 500;
}
);
unicode = 115;
},
{
glyphname = t;
lastChange = "2024-09-13 15:43:19 +0000";
layers = (
{
layerId = m01;
shapes = (
{
closed = 1;
nodes = (
(89,342,l),
(32,342,l),
(32,400,l),
(89,400,l),
(89,700,l),
(175,700,l),
(175,400,l),
(289,400,l),
(289,342,l),
(175,343,l),
(175,0,l),
(89,0,l)
);
}
);
width = 320;
}
);
unicode = 116;
},
{
glyphname = u;
lastChange = "2024-09-15 17:48:46 +0000";
layers = (
{
anchors = (
{
name = bottom;
pos = (250,0);
},
{
name = ogonek;
pos = (450,10);
},
{
name = top;
pos = (195,400);
},
{
name = topright;
pos = (480,400);
}
);
layerId = m01;
shapes = (
{
closed = 1;
nodes = (
(248,400,l),
(77,400,l),
(77,0,l),
(420,0,l),
(420,400,l),
(362,400,l),
(362,57,l),
(248,57,l)
);
}
);
width = 500;
}
);
unicode = 117;
},
{
glyphname = v;
lastChange = "2024-09-15 17:48:39 +0000";
layers = (
{
layerId = m01;
shapes = (
{
closed = 1;
nodes = (
(135,57,l),
(135,400,l),
(77,400,l),
(77,0,l),
(420,0,l),
(420,400,l),
(249,400,l),
(249,57,l)
);
}
);
width = 500;
}
);
unicode = 118;
},
{
glyphname = w;
lastChange = "2024-09-13 21:24:00 +0000";
layers = (
{
layerId = m01;
shapes = (
{
closed = 1;
nodes = (
(194,399,l),
(194,57,l),
(109,57,l),
(109,400,l),
(52,400,l),
(52,0,l),
(508,0,l),
(508,400,l),
(337,400,l),
(337,57,l),
(251,57,l),
(251,400,l)
);
}
);
width = 560;
}
);
unicode = 119;
},
{
glyphname = x;
lastChange = "2024-09-16 09:28:15 +0000";
layers = (
{
layerId = m01;
shapes = (
{
closed = 1;
nodes = (
(339,400,l),
(168,400,l),
(168,0,l),
(339,0,l)
);
},
{
closed = 1;
nodes = (
(419,172,l),
(476,172,l),
(476,400,l),
(419,400,l)
);
},
{
closed = 1;
nodes = (
(31,172,l),
(476,172,l),
(476,229,l),
(31,229,l)
);
},
{
closed = 1;
nodes = (
(31,0,l),
(88,0,l),
(88,229,l),
(31,229,l)
);
}
);
width = 500;
}
);
unicode = 120;
},
{
glyphname = y;
lastChange = "2024-09-13 14:31:18 +0000";
layers = (
{
layerId = m01;
shapes = (
{
closed = 1;
nodes = (
(422,-200,l),
(79,-200,l),
(79,-143,l),
(250,-143,l),
(250,0,l),
(79,0,l),
(79,400,l),
(136,400,l),
(136,57,l),
(250,57,l),
(250,400,l),
(422,400,l)
);
}
);
width = 500;
}
);
unicode = 121;
},
{
glyphname = z;
lastChange = "2024-09-15 13:01:52 +0000";
layers = (
{
anchors = (
{
name = bottom;
pos = (250,0);
},
{
name = center;
pos = (250,200);
},
{
name = top;
pos = (250,400);
}
);
layerId = m01;
shapes = (
{
closed = 1;
nodes = (
(165,0,l),
(479,0,l),
(479,57,l),
(336,57,l),
(336,400,l),
(22,400,l),
(22,342,l),
(165,342,l)
);
}
);
width = 500;
}
);
unicode = 122;
},
{
glyphname = v.001;
lastChange = "2024-09-13 14:47:58 +0000";
layers = (
{
layerId = m01;
shapes = (
{
closed = 1;
nodes = (
(293,399,l),
(293,57,l),
(208,57,l),
(208,400,l),
(151,400,l),
(151,0,l),
(350,0,l),
(350,400,l)
);
}
);
width = 500;
}
);
},
{
glyphname = zero;
lastChange = "2024-10-12 13:39:20 +0000";
layers = (
{
layerId = m01;
shapes = (
{
closed = 1;
nodes = (
(433,700,l),
(67,700,l),
(67,0,l),
(433,0,l)
);
},
{
closed = 1;
nodes = (
(130,61,l),
(130,639,l),
(372,639,l),
(372,61,l)
);
},
{
closed = 1;
nodes = (
(278,0,l),
(457,0,l),
(457,700,l),
(278,700,l)
);
},
{
closed = 1;
nodes = (
(44,0,l),
(223,0,l),
(223,700,l),
(44,700,l)
);
}
);
width = 500;
}
);
unicode = 48;
},
{
glyphname = one;
lastChange = "2024-10-11 11:56:20 +0000";
layers = (
{
layerId = m01;
shapes = (
{
closed = 1;
nodes = (
(156,642,l),
(69,642,l),
(69,700,l),
(331,700,l),
(331,1,l),
(156,1,l)
);
}
);
width = 400;
}
);
unicode = 49;
},
{
glyphname = two;
lastChange = "2024-10-11 11:56:58 +0000";
layers = (
{
layerId = m01;
shapes = (
{
closed = 1;
nodes = (
(72,640,l),
(72,578,l),
(11,578,l),
(11,700,l),
(316,700,l),
(316,61,l),
(468,61,l),
(468,0,l),
(133,0,l),
(133,640,l)
);
}
);
width = 480;
}
);
unicode = 50;
},
{
glyphname = three;
lastChange = "2024-09-13 21:36:26 +0000";
layers = (
{
layerId = m01;
shapes = (
{
closed = 1;
nodes = (
(200,639,l),
(48,639,l),
(48,699,l),
(382,699,l),
(382,0,l),
(48,0,l),
(48,61,l),
(200,61,l),
(200,319,l),
(109,319,l),
(109,380,l),
(200,380,l)
);
}
);
width = 430;
}
);
unicode = 51;
},
{
glyphname = four;
lastChange = "2024-10-11 11:55:57 +0000";
layers = (
{
layerId = m01;
shapes = (
{
closed = 1;
nodes = (
(93,700,l),
(93,365,l),
(215,365,l),
(215,700,l),
(397,700,l),
(397,365,l),
(488,365,l),
(488,304,l),
(397,304,l),
(397,0,l),
(215,0,l),
(215,304,l),
(32,304,l),
(32,700,l)
);
}
);
width = 520;
}
);
unicode = 52;
},
{
glyphname = five;
lastChange = "2024-10-11 11:58:43 +0000";
layers = (
{
layerId = m01;
shapes = (
{
closed = 1;
nodes = (
(407,639,l),
(407,0,l),
(42,0,l),
(42,213,l),
(103,213,l),
(103,61,l),
(225,61,l),
(225,700,l),
(488,700,l),
(488,639,l)
);
}
);
width = 540;
}
);
unicode = 53;
},
{
glyphname = six;
lastChange = "2024-09-14 08:02:12 +0000";
layers = (
{
layerId = m01;
shapes = (
{
closed = 1;
nodes = (
(280,399,l),
(464,399,l),
(464,0,l),
(96,0,l),
(96,700,l),
(280,700,l)
);
},
{
closed = 1;
nodes = (
(280,62,l),
(403,62,l),
(403,338,l),
(280,338,l)
);
}
);
width = 560;
}
);
unicode = 54;
},
{
glyphname = seven;
lastChange = "2024-10-11 11:59:05 +0000";
layers = (
{
layerId = m01;
shapes = (
{
closed = 1;
nodes = (
(163,639,l),
(163,578,l),
(102,578,l),
(102,700,l),
(417,700,l),
(417,0,l),
(234,0,l),
(234,640,l)
);
}
);
width = 520;
}
);
unicode = 55;
},
{
glyphname = eight;
lastChange = "2024-10-12 13:39:04 +0000";
layers = (
{
layerId = m01;
shapes = (
{
closed = 1;
nodes = (
(483,700,l),
(118,700,l),
(118,0,l),
(483,0,l)
);
},
{
closed = 1;
nodes = (
(300,61,l),
(300,320,l),
(422,320,l),
(422,61,l)
);
},
{
closed = 1;
nodes = (
(300,380,l),
(300,639,l),
(422,639,l),
(422,380,l)
);
},
{
closed = 1;
nodes = (
(352,0,l),
(531,0,l),
(531,700,l),
(352,700,l)
);
},
{
closed = 1;
nodes = (
(118,0,l),
(297,0,l),
(297,700,l),
(118,700,l)
);
}
);
width = 600;
}
);
unicode = 56;
},
{
glyphname = nine;
lastChange = "2024-09-14 08:02:04 +0000";
layers = (
{
layerId = m01;
shapes = (
{
closed = 1;
nodes = (
(260,304,l),
(78,304,l),
(78,700,l),
(443,700,l),
(443,0,l),
(260,0,l)
);
},
{
closed = 1;
nodes = (
(139,365,l),
(260,365,l),
(260,638,l),
(139,638,l)
);
}
);
width = 520;
}
);
unicode = 57;
},
{
glyphname = period;
lastChange = "2024-09-13 16:10:29 +0000";
layers = (
{
layerId = m01;
shapes = (
{
closed = 1;
nodes = (
(158,0,l),
(158,76,l),
(82,76,l),
(82,0,l)
);
}
);
width = 240;
}
);
unicode = 46;
},
{
glyphname = comma;
lastChange = "2024-09-13 15:51:16 +0000";
layers = (
{
layerId = m01;
shapes = (
{
closed = 1;
nodes = (
(150,-143,l),
(150,114,l),
(93,114,l),
(93,-143,l)
);
}
);
width = 240;
}
);
unicode = 44;
},
{
glyphname = exclam;
lastChange = "2024-09-14 07:36:18 +0000";
layers = (
{
layerId = m01;
shapes = (
{
closed = 1;
nodes = (
(82,677,l),
(82,162,l),
(158,162,l),
(158,677,l)
);
},
{
ref = period;
}
);
width = 240;
}
);
unicode = 33;
},
{
glyphname = question;
lastChange = "2024-09-14 07:58:56 +0000";
layers = (
{
layerId = m01;
shapes = (
{
closed = 1;
nodes = (
(334,150,l),
(266,150,l),
(266,639,l),
(144,639,l),
(144,487,l),
(83,487,l),
(83,700,l),
(334,700,l)
);
},
{
pos = (180,0);
ref = period;
}
);
width = 460;
}
);
unicode = 63;
},
{
glyphname = bullet;
lastChange = "2024-10-14 15:05:10 +0000";
layers = (
{
layerId = m01;
shapes = (
{
closed = 1;
nodes = (
(364,178,l),
(364,307,l),
(235,307,l),
(235,178,l)
);
}
);
width = 600;
}
);
unicode = 8226;
},
{
glyphname = asterisk;
lastChange = "2024-09-16 09:47:13 +0000";
layers = (
{
layerId = m01;
shapes = (
{
closed = 1;
nodes = (
(205,470,l),
(154,470,l),
(154,698,l),
(205,698,l)
);
},
{
closed = 1;
nodes = (
(65,620,l),
(90,662,l),
(295,548,l),
(270,506,l)
);
},
{
closed = 1;
nodes = (
(90,506,l),
(65,548,l),
(270,662,l),
(295,620,l)
);
}
);
width = 360;
}
);
unicode = 42;
},
{
glyphname = numbersign;
lastChange = "2024-09-16 09:31:06 +0000";
layers = (
{
layerId = m01;
shapes = (
{
closed = 1;
nodes = (
(228,400,l),
(157,400,l),
(157,0,l),
(228,0,l)
);
},
{
closed = 1;
nodes = (
(61,259,l),
(506,259,l),
(506,316,l),
(61,316,l)
);
},
{
closed = 1;
nodes = (
(418,400,l),
(347,400,l),
(347,0,l),
(418,0,l)
);
},
{
closed = 1;
nodes = (
(61,84,l),
(506,84,l),
(506,141,l),
(61,141,l)
);
}
);
width = 600;
}
);
unicode = 35;
},
{
glyphname = slash;
lastChange = "2024-10-14 15:05:52 +0000";
layers = (
{
layerId = m01;
shapes = (
{
closed = 1;
nodes = (
(432,700,l),
(375,700,l),
(164,0,l),
(221,0,l)
);
}
);
width = 600;
}
);
unicode = 47;
},
{
glyphname = backslash;
lastChange = "2024-10-14 15:05:58 +0000";
layers = (
{
layerId = m01;
shapes = (
{
closed = 1;
nodes = (
(432,0,l),
(221,700,l),
(164,700,l),
(375,0,l)
);
}
);
width = 600;
}
);
unicode = 92;
},
{
glyphname = hyphen;
lastChange = "2024-09-13 17:48:28 +0000";
layers = (
{
layerId = m01;
shapes = (
{
closed = 1;
nodes = (
(424,299,l),
(77,299,l),
(77,242,l),
(424,242,l)
);
}
);
width = 500;
}
);
unicode = 45;
},
{
glyphname = endash;
lastChange = "2024-09-13 15:59:04 +0000";
layers = (
{
layerId = m01;
shapes = (
{
closed = 1;
nodes = (
(517,298,l),
(60,298,l),
(60,241,l),
(517,241,l)
);
}
);
width = 600;
}
);
unicode = 8211;
},
{
glyphname = at;
lastChange = "2024-09-13 21:30:18 +0000";
layers = (
{
layerId = m01;
shapes = (
{
closed = 1;
nodes = (
(587,476,l),
(40,476,l),
(40,533,l),
(644,533,l),
(644,-131,l),
(40,-131,l),
(40,400,l),
(514,400,l),
(514,0,l),
(171,0,l),
(171,229,l),
(342,229,l),
(342,343,l),
(97,343,l),
(97,-74,l),
(587,-74,l)
);
},
{
closed = 1;
nodes = (
(228,57,l),
(342,57,l),
(342,171,l),
(228,171,l)
);
}
);
width = 700;
}
);
unicode = 64;
},
{
glyphname = ampersand;
lastChange = "2024-10-10 14:00:50 +0000";
layers = (
{
layerId = m01;
shapes = (
{
closed = 1;
nodes = (
(533,0,l),
(533,461,l),
(411,461,l),
(411,700,l),
(66,700,l),
(66,0,l)
);
},
{
closed = 1;
nodes = (
(127,401,l),
(411,401,l),
(411,61,l),
(127,61,l)
);
},
{
closed = 1;
nodes = (
(127,639,l),
(289,639,l),
(289,461,l),
(127,461,l)
);
},
{
closed = 1;
nodes = (
(411,-97,l),
(533,-97,l),
(533,33,l),
(411,33,l)
);
}
);
width = 600;
}
);
unicode = 38;
},
{
glyphname = degree;
lastChange = "2024-09-13 15:52:23 +0000";
layers = (
{
layerId = m01;
shapes = (
{
closed = 1;
nodes = (
(278,469,l),
(278,698,l),
(50,698,l),
(50,469,l)
);
},
{
closed = 1;
nodes = (
(107,641,l),
(221,641,l),
(221,526,l),
(107,526,l)
);
}
);
width = 320;
}
);
unicode = 176;
},
{
glyphname = bar;
lastChange = "2024-09-13 21:23:03 +0000";
layers = (
{
layerId = m01;
shapes = (
{
closed = 1;
nodes = (
(229,-143,l),
(229,800,l),
(172,800,l),
(172,-143,l)
);
}
);
width = 400;
}
);
unicode = 124;
},
{
glyphname = multiply;
lastChange = "2024-10-14 15:08:21 +0000";
layers = (
{
layerId = m01;
shapes = (
{
closed = 1;
nodes = (
(357,465,l),
(272,465,l),
(57,121,l),
(142,121,l)
);
},
{
closed = 1;
nodes = (
(357,121,l),
(148,466,l),
(64,466,l),
(272,121,l)
);
}
);
width = 400;
}
);
unicode = 215;
},
{
glyphname = dieresiscomb;
lastChange = "2024-10-14 15:18:09 +0000";
layers = (
{
anchors = (
{
name = _top;
pos = (156,400);
},
{
name = top;
pos = (149,564);
}
);
layerId = m01;
shapes = (
{
closed = 1;
nodes = (
(109,488,l),
(109,564,l),
(33,564,l),
(33,488,l)
);
},
{
closed = 1;
nodes = (
(264,488,l),
(264,564,l),
(188,564,l),
(188,488,l)
);
}
);
width = 300;
}
);
unicode = 776;
},
{
glyphname = acutecomb;
lastChange = "2024-10-14 15:17:44 +0000";
layers = (
{
anchors = (
{
name = _top;
pos = (127,490);
},
{
name = top;
pos = (122,799);
}
);
layerId = m01;
shapes = (
{
closed = 1;
nodes = (
(150,542,l),
(150,799,l),
(93,799,l),
(93,542,l)
);
}
);
width = 240;
}
);
unicode = 769;
},
{
glyphname = hungarumlautcomb;
lastChange = "2024-10-09 12:40:33 +0000";
layers = (
{
anchors = (
{
name = _top;
pos = (133,401);
},
{
name = top;
pos = (44,800);
}
);
layerId = m01;
shapes = (
{
closed = 1;
nodes = (
(82,493,l),
(82,750,l),
(15,750,l),
(15,493,l)
);
},
{
closed = 1;
nodes = (
(203,494,l),
(203,751,l),
(141,750,l),
(141,493,l)
);
}
);
width = 240;
}
);
unicode = 779;
},
{
glyphname = caroncomb;
lastChange = "2024-09-15 13:00:46 +0000";
layers = (
{
anchors = (
{
name = _top;
pos = (146,400);
},
{
name = top;
pos = (146,700);
}
);
layerId = m01;
shapes = (
{
closed = 1;
nodes = (
(188,699,l),
(188,583,l),
(103,583,l),
(103,700,l),
(46,700,l),
(46,526,l),
(245,526,l),
(245,700,l)
);
}
);
width = 300;
}
);
unicode = 780;
},
{
glyphname = WIP;
lastChange = "2024-10-10 10:40:03 +0000";
layers = (
{
layerId = m01;
shapes = (
{
closed = 1;
nodes = (
(318,700,l),
(157,700,l),
(310,0,l),
(477,0,l)
);
}
);
width = 600;
}
);
},
{
glyphname = aha;
lastChange = "2024-10-11 12:09:12 +0000";
layers = (
{
layerId = m01;
shapes = (
{
attr = {
fillColor = (45,56,75,255);
};
closed = 1;
nodes = (
(618,118,o),
(480,-49,o),
(309,-82,c),
(139,-115,o),
(1,-3,o),
(1,169,c),
(1,341,o),
(139,508,o),
(309,541,c),
(480,575,o),
(618,462,o),
(618,290,c)
);
},
{
attr = {
fillColor = (45,56,75,255);
};
closed = 1;
nodes = (
(308,308,l),
(243,409,l),
(186,365,l),
(252,265,l),
(69,229,l),
(69,157,l),
(224,188,l),
(156,91,l),
(222,46,l),
(311,173,l),
(394,44,l),
(451,88,l),
(367,216,l),
(550,254,l),
(550,324,l),
(394,292,l),
(456,383,l),
(391,426,l)
);
}
